{"title":"Phobia Hindi 2016 DesiSCR x264-Hindify.mp4","uid":15577932,"size":736625108,"categoryP":"video","categoryS":"movies_dvdr","magnet":"?xt=urn:btih:72e259bad389123dc56c99a8388ec72f725bf12b&amp;dn=Phobia+Hindi+2016+DesiSCR+x264-Hindify.mp4&amp;tr=udp%3A%2F%2Ftracker.leechers-paradise.org%3A6969&amp;tr=udp%3A%2F%2Fzer0day.ch%3A1337&amp;tr=udp%3A%2F%2Fopen.demonii.com%3A1337&amp;tr=udp%3A%2F%2Ftracker.coppersurfer.tk%3A6969&amp;tr=udp%3A%2F%2Fexodus.desync.com%3A6969","seeders":1,"leechers":1,"uploader":null,"files":1,"time":1471365732,"description":"Phobia Hindi 2016 DesiSCR x264-Hindify.mp4\r\n\r\nScreens:\r\n \nhttp://extraimago.com/images/2016/08/16/vlcsnap-2016-08-16-11h39m54s354.png \nhttp://extraimago.com/images/2016/08/16/vlcsnap-2016-08-16-11h39m51s010.png \nhttp://extraimago.com/images/2016/08/16/vlcsnap-2016-08-16-11h39m47s708.png \nhttp://extraimago.com/images/2016/08/16/vlcsnap-2016-08-16-11h39m43s545.png \nhttp://extraimago.com/images/2016/08/16/vlcsnap-2016-08-16-11h39m39s813.png\r\n\r\nInfo:\r\n\r\nFormat : MPEG-4\r\nFormat profile : Base Media\r\nCodec ID : isom (isom/iso2/avc1/mp41)\r\nFile size : 703 MiB\r\nDuration : 1 h 51 min\r\nOverall bit rate : 884 kb/s\r\nMovie name : Phobia (2016) DVDRIP 1CDRIP x264 AAC MSub [DDR]\r\nWriting application : Lavf57.20.100\r\n\r\nVideo\r\nID : 1\r\nFormat : AVC\r\nFormat/Info : Advanced Video Codec\r\nFormat profile :   \r\nFormat settings, CABAC : Yes\r\nFormat settings, ReFrames : 8 frames\r\nCodec ID : avc1\r\nCodec ID/Info : Advanced Video Coding\r\nDuration : 1 h 51 min\r\nBit rate : 796 kb/s\r\nWidth : 640 pixels\r\nHeight : 272 pixels\r\nDisplay aspect ratio : 2.35:1\r\nFrame rate mode : Variable\r\nFrame rate : 23.976 (24000/1001) FPS\r\nMinimum frame rate : 23.564 FPS\r\nMaximum frame rate : 24.390 FPS\r\nColor space : YUV\r\nChroma subsampling : 4:2:0\r\nBit depth : 8 bits\r\nScan type : Progressive\r\nBits/(Pixel*Frame) : 0.191\r\nStream size : 633 MiB (90%)\r\nWriting library : x264 core 148 r2705 3f5ed56\r\nEncoding settings : cabac=1 / ref=8 / deblock=1:1:1 / analyse=0x3:0x133 / me=umh / subme=9 / psy=1 / psy_rd=1.00:0.15 / mixed_ref=1 / me_range=25 / chroma_me=1 / trellis=2 / 8x8dct=1 / cqm=0 / deadzone=21,11 / fast_pskip=1 / chroma_qp_offset=-3 / threads=8 / lookahead_threads=1 / sliced_threads=0 / nr=0 / decimate=1 / interlaced=0 / bluray_compat=0 / constrained_intra=0 / bframes=3 / b_pyramid=2 / b_adapt=2 / b_bias=0 / direct=3 / weightb=1 / open_gop=0 / weightp=2 / keyint=230 / keyint_min=23 / scenecut=40 / intra_refresh=0 / rc_lookahead=60 / rc=2pass / mbtree=1 / bitrate=796 / ratetol=1.0 / qcomp=0.60 / qpmin=10 / qpmax=51 / qpstep=4 / cplxblur=20.0 / qblur=0.5 / vbv_maxrate=62500 / vbv_bufsize=78125 / nal_hrd=none / filler=0 / ip_ratio=1.40 / aq=1:1.00\r\nLanguage : Hindi\r\nMenus : 3\r\n\r\nAudio\r\nID : 2\r\nFormat : AAC\r\nFormat/Info : Advanced Audio Codec\r\nFormat profile : LC\r\nCodec ID : 40\r\nDuration : 1 h 51 min\r\nBit rate mode : Constant\r\nBit rate : 80.0 kb/s\r\nChannel(s) : 2 channels\r\nChannel positions : Front: L R\r\nSampling rate : 48.0 kHz\r\nFrame rate : 46.875 FPS (1024 spf)\r\nCompression mode : Lossy\r\nStream size : 63.6 MiB (9%)\r\nLanguage : Hindi\r\nDefault : Yes\r\nAlternate group : 1\r\nMenus : 3\r\n\r\nMenu #1\r\nID : 3\r\nCodec ID : text\r\nDuration : 1 h 51 min\r\nLanguage : English\r\nBit rate mode : CBR\r\nMenu For : 1,2\r\n00:00:00.000 : Chapter 01\r\n00:01:24.901 : Chapter 02\r\n00:10:21.001 : Chapter 03\r\n00:15:47.668 : Chapter 04\r\n00:24:15.735 : Chapter 05\r\n00:28:26.169 : Chapter 06\r\n00:41:47.702 : Chapter 07\r\n00:44:59.503 : Chapter 08\r\n00:54:37.538 : Chapter 09\r\n01:00:54.638 : Chapter 10\r\n01:02:57.972 : Chapter 11\r\n01:11:23.972 : Chapter 12\r\n01:13:23.306 : Chapter 13\r\n01:24:20.840 : Chapter 14\r\n01:31:31.174 : Chapter 15\r\n01:45:17.808 : Chapter 16\r\n01:50:56.509 : Chapter 17\r\n\r\nMenu #2\r\n00:00:00.000 : Chapter 01\r\n00:01:24.901 : Chapter 02\r\n00:10:21.001 : Chapter 03\r\n00:15:47.668 : Chapter 04\r\n00:24:15.735 : Chapter 05\r\n00:28:26.169 : Chapter 06\r\n00:41:47.702 : Chapter 07\r\n00:44:59.503 : Chapter 08\r\n00:54:37.538 : Chapter 09\r\n01:00:54.638 : Chapter 10\r\n01:02:57.972 : Chapter 11\r\n01:11:23.972 : Chapter 12\r\n01:13:23.306 : Chapter 13\r\n01:24:20.840 : Chapter 14\r\n01:31:31.174 : Chapter 15\r\n01:45:17.808 : Chapter 16\r\n01:50:56.509 : Chapter 17 \r\n \nhttp://tvmoviereviews.drupalgardens.com/content/phobia-review","torrent":{"xt":"urn:btih:72e259bad389123dc56c99a8388ec72f725bf12b","amp;dn":"Phobia+Hindi+2016+DesiSCR+x264-Hindify.mp4","amp;tr":["udp%3A%2F%2Ftracker.leechers-paradise.org%3A6969","udp%3A%2F%2Fzer0day.ch%3A1337","udp%3A%2F%2Fopen.demonii.com%3A1337","udp%3A%2F%2Ftracker.coppersurfer.tk%3A6969","udp%3A%2F%2Fexodus.desync.com%3A6969"],"infoHash":"72e259bad389123dc56c99a8388ec72f725bf12b","infoHashBuffer":{"type":"Buffer","data":[114,226,89,186,211,137,18,61,197,108,153,168,56,142,199,47,114,91,241,43]},"announce":[],"urlList":[]}}